# xmcd
#
# Track frame offsets:
#	150
#	13389
#	26595
#	40671
#	54965
#	70517
#	86476
#	102539
#	119800
#	136857
#	151336
#	164217
#	183735
#	196419
#	210910
#	227685
#	241058
#	253881
#	269248
#	284196
#
# Disc length: 4000 seconds
#
# Revision: 1
# Processed by: cddbd v1.5.2PL0 Copyright (c) Steve Scherf et al.
# Submitted via: audiograbber 1.83.01
#
DISCID=2e0f9e14
DTITLE=Truck Stop - Country Freunde für immer  [CD 2)
DYEAR=2015
DGENRE=Country	
TTITLE0=Take It Easy altes Haus
TTITLE1=Country Made In Germany
TTITLE2=Cowboys und Texasboots
TTITLE3=Die Lady und der Tramp
TTITLE4=Alles Bingo
TTITLE5=Gegen den Wind
TTITLE6=California
TTITLE7=Damenwahl (Western Dance Version)
TTITLE8=Der Kaffee muss schwarz sein
TTITLE9=Von Arizona bis Old Texas Town
TTITLE10=Echte Cowboys weinen nie
TTITLE11=Immer geradeaus
TTITLE12=Country Music
TTITLE13=Mississippi Lady
TTITLE14=Alabama Moon
TTITLE15=Morgens in Montana
TTITLE16=Highway nach Tennessee
TTITLE17=Hello, Lady Harley
TTITLE18=Lass Dir nie den Tag verderben
TTITLE19=Freunde bleiben
EXTD=
EXTT0=
EXTT1=
EXTT2=
EXTT3=
EXTT4=
EXTT5=
EXTT6=
EXTT7=
EXTT8=
EXTT9=
EXTT10=
EXTT11=
EXTT12=
EXTT13=
EXTT14=
EXTT15=
EXTT16=
EXTT17=
EXTT18=
EXTT19=
PLAYORDER=
